<svg xmlns="http://www.w3.org/2000/svg" viewBox="0 0 65.01 65.01"><defs><style>.cls-1{fill:#347f6f;}.cls-2,.cls-4{fill:#f4efe6;}.cls-3{fill:none;stroke:#f4efe6;stroke-width:0.5px;}.cls-3,.cls-4{stroke-miterlimit:10;}.cls-4{stroke:#347f6f;stroke-width:0.25px;}</style></defs><g id="Layer_2" data-name="Layer 2"><g id="Layer_1-2" data-name="Layer 1"><path class="cls-1" d="M32.5,0A32.51,32.51,0,1,0,65,32.5,32.5,32.5,0,0,0,32.5,0Zm0,62.05A29.55,29.55,0,1,1,62.05,32.5,29.55,29.55,0,0,1,32.5,62.05Z"/><path class="cls-1" d="M61.13,32.5c0,.51-1.21,1-1.24,1.49S61,35.1,61,35.6s-1.32.85-1.4,1.34,1,1.23.9,1.72-1.4.7-1.53,1.18.86,1.33.7,1.81-1.46.54-1.65,1,.72,1.41.5,1.87-1.51.38-1.75.82.56,1.48.3,1.92-1.55.21-1.83.63.39,1.53.09,1.93-1.57,0-1.89.43.23,1.57-.12,1.93-1.56-.12-1.93.22S51.42,54,51,54.33s-1.54-.3-1.94,0-.11,1.58-.53,1.86-1.49-.45-1.93-.19-.28,1.56-.72,1.79-1.44-.61-1.9-.4-.44,1.52-.92,1.71-1.36-.77-1.84-.61-.61,1.46-1.09,1.6-1.27-.92-1.77-.81-.76,1.39-1.26,1.47-1.16-1-1.67-1-.91,1.3-1.42,1.32-1-1.16-1.55-1.16-1,1.19-1.54,1.16-.92-1.27-1.42-1.32-1.17,1.07-1.67,1-.77-1.36-1.26-1.47-1.28.94-1.77.81-.62-1.44-1.09-1.6-1.38.79-1.84.61-.46-1.5-.92-1.71-1.45.64-1.9.4-.29-1.53-.73-1.79-1.51.48-1.92.19-.13-1.56-.53-1.86-1.55.31-1.94,0,0-1.56-.32-1.91-1.58.15-1.93-.22.21-1.55-.12-1.93-1.58,0-1.89-.43.38-1.52.09-1.93S8.23,47.7,8,47.27s.54-1.47.3-1.92S6.73,45,6.52,44.53s.69-1.4.5-1.87-1.49-.53-1.65-1,.84-1.32.7-1.81-1.42-.68-1.53-1.18,1-1.22.9-1.72S4.1,36.11,4,35.6,5.15,34.5,5.12,34,3.87,33,3.87,32.5s1.22-1,1.25-1.48S4,29.91,4,29.41s1.32-.85,1.4-1.34-1-1.23-.9-1.72,1.4-.7,1.53-1.18-.86-1.33-.7-1.81,1.46-.54,1.65-1-.72-1.41-.5-1.87S8,20.1,8.27,19.66s-.56-1.49-.3-1.92,1.55-.21,1.83-.63-.39-1.53-.09-1.93,1.56,0,1.89-.43-.23-1.57.12-1.93,1.56.12,1.93-.23S13.58,11,14,10.68s1.54.3,1.94,0,.11-1.58.53-1.86,1.49.45,1.93.19.27-1.56.72-1.8,1.44.62,1.9.41.44-1.52.92-1.71,1.36.77,1.84.61.6-1.46,1.09-1.6,1.27.91,1.77.81.76-1.39,1.26-1.47,1.16,1,1.67,1,.91-1.3,1.42-1.32,1,1.16,1.54,1.16,1-1.19,1.55-1.16S35,5.19,35.47,5.24s1.17-1.07,1.67-1,.77,1.36,1.26,1.47,1.28-.94,1.77-.81.62,1.44,1.09,1.6,1.38-.8,1.84-.61.46,1.5.92,1.71,1.45-.64,1.9-.4.29,1.53.72,1.79,1.51-.48,1.93-.19.13,1.55.53,1.86,1.55-.31,1.94,0,0,1.57.32,1.91,1.58-.14,1.93.23-.21,1.54.12,1.93,1.58,0,1.89.43-.38,1.52-.09,1.93,1.57.2,1.83.63-.54,1.47-.3,1.92,1.54.36,1.75.82-.69,1.4-.5,1.87,1.49.53,1.65,1-.84,1.32-.7,1.81,1.42.68,1.53,1.18-1,1.21-.9,1.72,1.34.83,1.4,1.34-1.11,1.1-1.08,1.61S61.13,32,61.13,32.5Z"/><path class="cls-2" d="M32.5,64A31.48,31.48,0,0,1,10.23,10.23,31.5,31.5,0,1,1,54.78,54.78,31.31,31.31,0,0,1,32.5,64Zm0-62.16A30.66,30.66,0,1,0,63.16,32.5,30.69,30.69,0,0,0,32.5,1.85Z"/><path class="cls-2" d="M14.59,49.14,17,48.46,17,48.41c-.61-.59-1.47-.32-1.52.23H15.1c0-.75,1.17-1.35,2.08-.47,1.68,1.63-1.21,3.47-2.45,2.27a1.69,1.69,0,0,1-.44-.83.84.84,0,0,1-.74-.24.47.47,0,0,1-.08-.69.52.52,0,0,1,.77.08,1.09,1.09,0,0,1,.26.42Zm-.41.13A1,1,0,0,0,14,49c-.09-.09-.18-.09-.23,0s0,.14.06.24A.39.39,0,0,0,14.18,49.27Zm3.05-.49-2.62.75a1.3,1.3,0,0,0,.35.65C15.74,50.94,17.77,49.89,17.23,48.78Z"/><path class="cls-2" d="M17.25,51l-.08,0c-.38.16-.35.39-.14.55a1.64,1.64,0,0,0,1.21.1h0a.28.28,0,0,1,0,.22,2,2,0,0,1-1.55-.17.55.55,0,0,1,.16-1l.83-.35a.92.92,0,0,1,.95.09c.29.22.29.59-.14.77l-.12,0A.93.93,0,0,1,17.25,51Zm.22-.1a.53.53,0,0,0,.7.17l.11,0c.48-.21.17-.53-.29-.34Z"/><path class="cls-2" d="M17.85,52.14l.3,0a.26.26,0,0,0,.09.25c.34.22.71-.5,1.1-.79-.24.09-.59.22-.95.33a.59.59,0,0,1-.05-.22c.58-.17,1.22-.43,1.5-.54l.18.33c-.53.32-.85.87-1.2,1.14a3.07,3.07,0,0,0,.7-.11h0a.25.25,0,0,1,.06.21,2.18,2.18,0,0,1-1.45,0h0l-.11-.06A.48.48,0,0,1,17.85,52.14Z"/><path class="cls-2" d="M20.54,53.1a.33.33,0,0,1,.06.22,1.91,1.91,0,0,1-1.38.12c-.3-.17-.27-.49.05-.68l1.52-.87.37.21-1.62.95c-.17.09-.16.18-.07.23a1.74,1.74,0,0,0,1-.16Zm1-1.6a.26.26,0,0,1-.26.44.25.25,0,0,1-.09-.34A.25.25,0,0,1,21.58,51.5Z"/><path class="cls-2" d="M20.5,54.23l.19-.13a.83.83,0,0,1-.43-.05c-.32-.16-.3-.48,0-.69l1-.68a1,1,0,0,1,.89-.12.47.47,0,0,1,.22.58l.23.11L21,54.31A2.9,2.9,0,0,0,22.28,54l0,0a.39.39,0,0,1,.08.21,3,3,0,0,1-1.68.29l-.55.37c-.52.34-1.05,0-.87-.39S19.89,54.13,20.5,54.23Zm-.62.42.34-.23c-.36,0-.51,0-.56.14S19.73,54.75,19.88,54.65Zm.67-1c-.16.11-.14.19-.06.23s.49,0,.92-.25l.55-.37c.36-.26,0-.55-.4-.29Z"/><path class="cls-2" d="M24.31,54.77a.35.35,0,0,1,.1.2,2,2,0,0,1-1.34.35c-.33-.13-.35-.46-.06-.69l.88-.71c.29-.24.06-.44-.86.09l-1,.85-.41-.16,1.88-1.52.4.16-.25.2a.86.86,0,0,1,.68-.08c.23.08.31.37,0,.61l-1,.8c-.15.13-.13.21,0,.24s.57-.09,1-.32Z"/><path class="cls-2" d="M30.76,54.25c-.11-.23-.37-.2-.65.15l-1.35,1.68c-.63.78-1.48.6-1.49.1-.75.59-1.28,0-.8-.57l1.39-1.74c-.59.19-1.56.11-1.64.64a.38.38,0,0,0,.18.34l-.21.25a.68.68,0,0,1-.35-.65c.14-.88,1.47-.59,2.37-1l.16.41-1.55,1.92c-.37.46,0,.73.63,0l1.63-2,.43.07-1.84,2.29c-.26.33.2.5.65-.07l1.45-1.79c.81-1,1.68,0,1.35.4a.27.27,0,0,1-.24.09.25.25,0,0,1-.21-.29A.26.26,0,0,1,30.76,54.25Zm-.2,1.82a.33.33,0,0,1,.14.17c-.42.36-.89.68-1.24.62s-.43-.37-.2-.66l1.1-1.36.43.07-1.17,1.46c-.13.16-.09.23,0,.24s.53-.2.9-.51Z"/><path class="cls-2" d="M31.14,54.57h.39l.43-.7h.43l-.42.7h.36l-.14.21h-.35l-1,1.6c-.11.17-.06.24,0,.24s.51-.27.83-.63l0,0a.33.33,0,0,1,.16.15c-.37.41-.79.79-1.15.78s-.48-.31-.29-.63l.91-1.49H31Z"/><path class="cls-2" d="M33.88,55.9a.41.41,0,0,1,.17.15c-.34.43-.74.83-1.1.85s-.49-.28-.32-.61l.52-1c.18-.33-.13-.43-.76.44l-.61,1.18-.44,0L33,53.84h.43l-.64,1.23a.89.89,0,0,1,.59-.35c.24,0,.43.22.26.55L33,56.39c-.09.18,0,.24.06.24s.49-.31.78-.69Z"/><path class="cls-2" d="M39.38,54.83a.37.37,0,0,1,.19.11c-.25.49-.49.94-.8,1s-.41-.21-.37-.55l.05-.47-.57.14c-.29.66-.64,1.24-1.22,1.39-.88.21-1.52-.56-1.23-1.55a1.06,1.06,0,0,1,1.83-.54l-.3.21c-.32-.43-1-.27-1.17.44s.13,1.23.78,1.07c1.08-.27,1.45-3.38,2.45-3.31l-.25,2.64c0,.18,0,.22.07.21a2.59,2.59,0,0,0,.52-.77Zm-1.4,0,.49-.12.13-1.3A12,12,0,0,0,38,54.84Z"/><path class="cls-2" d="M41.19,55.06l.26-3.37.39-.19-.12,1.56c.39.17.94-.12,1-.81.12-1.53-1.71-1.4-1.8-.09a1.67,1.67,0,0,0,.05.54l-.29.09a1.81,1.81,0,0,1-.09-.65,1.26,1.26,0,1,1,2.51.08,1.06,1.06,0,0,1-1.39,1.06l-.12,1.59Z"/><path class="cls-2" d="M45.06,51.92a.38.38,0,0,1,.21,0,1.87,1.87,0,0,1-.54,1.28.33.33,0,0,1-.53-.16,1.29,1.29,0,0,1-.39.73c-.25.16-.47,0-.49-.47l0-1.7.37-.23.06,1.71c0,.1,0,.3.11.28s.22-.29.34-.72l0-1.55.37-.23.06,1.87c0,.2.09.23.17.18s.27-.51.35-1Z"/><path class="cls-2" d="M45.61,50.92a.21.21,0,0,0-.16-.18l-.09,0c0,.58,0,.86,0,1.18a.73.73,0,0,1-.22,0c0-.44,0-.89,0-1.22l-.07,0a.45.45,0,0,1-.3-.6l.32.06a.18.18,0,0,0,.13.22l.37.09a.45.45,0,0,1,.41.44l.1.87c0,.19.11.21.18.16a1.7,1.7,0,0,0,.27-1v0a.34.34,0,0,1,.22,0,1.92,1.92,0,0,1-.43,1.32c-.28.21-.56.05-.61-.32Z"/><path class="cls-2" d="M47,52.84l-.68-3.41.33-.28,0,.17c.07-.59.72-.85.87-.07l.18.94c0,.11.06.23.08.36a2,2,0,0,0,.2-1v0a.28.28,0,0,1,.22,0,1.9,1.9,0,0,1-.53,1.53l0,0a.48.48,0,0,1-.59.05l.11-.25c.17.07.27-.07.24-.21l-.26-1.29c0-.22-.43-.2-.36.61l.51,2.56Z"/><path class="cls-2" d="M49.23,49.11c.12.93-.86,1.44-1.16.4L48,49.15l-.13-.42a.93.93,0,0,1,.18-1c.29-.29.77-.17.91.34l.22.79a1,1,0,0,0,.23-.7v0a.4.4,0,0,1,.22,0,1.37,1.37,0,0,1-.32.94Zm-.48-.29v0l-.17-.6c-.14-.51-.58-.35-.42.23l.11.4.19.63c.14.5.53.19.42-.2h0a.21.21,0,0,1-.13-.07A.25.25,0,0,1,48.75,48.82Z"/><path class="cls-2" d="M49.77,48.59l.06-.3a.23.23,0,0,0,.25-.06c.27-.31-.41-.76-.65-1.18.06.25.15.61.21,1a.56.56,0,0,1-.22,0c-.1-.6-.28-1.26-.36-1.56l.34-.14a9.4,9.4,0,0,0,1,1.32,2.8,2.8,0,0,0,0-.7v0a.34.34,0,0,1,.22,0,2.17,2.17,0,0,1-.16,1.44h0a.61.61,0,0,1-.07.1A.47.47,0,0,1,49.77,48.59Z"/><path class="cls-2" d="M50.7,46.63l0,.08c.16.37.39.33.55.12a1.65,1.65,0,0,0,.07-1.21v0a.33.33,0,0,1,.22,0,2,2,0,0,1-.14,1.56.54.54,0,0,1-1-.14l-.37-.82a.92.92,0,0,1,.08-1c.2-.29.58-.29.77.13l.05.12A.93.93,0,0,1,50.7,46.63Zm-.1-.23a.52.52,0,0,0,.15-.7l0-.11c-.21-.47-.53-.16-.33.3Z"/><path class="cls-3" d="M18.82,36.48v5H22V16.19h3.73v26.6a2.49,2.49,0,0,1-2.49,2.45H17.58a2.52,2.52,0,0,1-2.49-2.45V36.48Z"/><path class="cls-3" d="M41.82,45.24V29.55L38.74,39h-3l-2.82-9.47V45.24H29v-29h3.74l4.44,14.52,4.61-14.52h3.73V45.24Z"/><path class="cls-2" d="M17.55,34.26v5h3.16V14h3.73v26.6A2.49,2.49,0,0,1,22,43H16.31a2.52,2.52,0,0,1-2.49-2.45V34.26Z"/><path class="cls-2" d="M40.55,43V27.33l-3.08,9.46h-3l-2.82-9.46V43H27.76V14H31.5l4.44,14.52L40.55,14h3.73V43Z"/><path class="cls-4" d="M6.85,25.78l3.64-.7a.23.23,0,0,1,.26.18l.32,2.19a.24.24,0,0,1-.19.27l-3.64.69c-.12,0-.18-.05-.14-.16l.39-1.05a.42.42,0,0,0-.06-.39L6.77,26C6.69,25.9,6.73,25.8,6.85,25.78Z"/><path class="cls-4" d="M19.55,29.3l-3.64.7a.23.23,0,0,1-.26-.18l-.32-2.19a.23.23,0,0,1,.18-.27l3.65-.7c.12,0,.18.05.14.17l-.39,1.05a.42.42,0,0,0,.06.39l.66.81A.13.13,0,0,1,19.55,29.3Z"/><path class="cls-4" d="M17.2,28.53l-7.55,1.4a.2.2,0,0,1-.25-.18L9,26.84a.24.24,0,0,1,.19-.26l7.55-1.41a.22.22,0,0,1,.26.18l.42,2.91A.24.24,0,0,1,17.2,28.53Z"/><path class="cls-1" d="M11,26.8l1-.19.11.58-.25,0-.07-.33L11.5,27l.14.73.18,0,0-.16.25-.05.1.54-.25.05,0-.14-.18,0,.14.76.31-.06-.06-.32.24,0,.11.57-1,.19,0-.25.15,0L11.23,27l-.16,0Z"/><path class="cls-1" d="M12.86,26.7l-.39.08.11.58.56,0,.16.15.16.84-.14.28-.56.11-.23-.2-.06-.34.27-.05.06.33.39-.08L13,27.66l-.55,0-.16-.13-.13-.66.16-.3.55-.1.21.2.07.34-.27.05Z"/><path class="cls-1" d="M14.44,26.15l.11.58-.25,0-.06-.33-.22,0,.33,1.73.15,0,.05.24-.59.11,0-.25.16,0-.33-1.73-.2,0,.06.33-.26.05-.11-.57Z"/><path class="cls-4" d="M46.64,29.39l3.64-.69a.21.21,0,0,1,.26.18l.32,2.19a.23.23,0,0,1-.19.26L47,32c-.12,0-.19-.05-.14-.17l.39-1.05a.4.4,0,0,0-.06-.38l-.66-.82C46.48,29.52,46.52,29.42,46.64,29.39Z"/><path class="cls-4" d="M59.34,32.92l-3.64.7a.22.22,0,0,1-.26-.18l-.32-2.2A.23.23,0,0,1,55.3,31l3.65-.7c.12,0,.18,0,.14.17l-.4,1.05a.43.43,0,0,0,.07.38l.66.82C59.5,32.8,59.46,32.89,59.34,32.92Z"/><path class="cls-4" d="M57,32.14l-7.55,1.41a.22.22,0,0,1-.25-.18l-.43-2.91A.24.24,0,0,1,49,30.2l7.55-1.41a.23.23,0,0,1,.26.18l.42,2.91A.23.23,0,0,1,57,32.14Z"/><path class="cls-1" d="M50.78,31.11l-.27,0-.09-.47.16-.23.53-.1.26.17.17.91-.2.21-.44.08.13.7.4-.07L51.37,32l.27-.05.1.56-.93.18-.18-1,.17-.26.46-.09-.16-.8-.4.07Z"/><path class="cls-1" d="M51.61,30.25l.72-.13.17.16.35,1.84-.13.22-.65.13-.22-.17-.34-1.83Zm.51,1.94.44-.09-.32-1.71-.45.09Z"/><path class="cls-1" d="M52.74,30l.73-.14.17.17L54,31.9l-.12.23-.66.12L53,32.09l-.35-1.83ZM53.25,32l.45-.08-.33-1.71-.44.08Z"/><path class="cls-1" d="M54.65,29.68l.05.25-.64.12.14.7.47-.09.19.12.18.94-.13.21-.55.11-.23-.15-.07-.41.26-.05.06.33.38-.07-.14-.78-.48.09-.21-.18-.18-1Z"/></g></g></svg>